<svg xmlns="http://www.w3.org/2000/svg" viewBox="0 0 866 288" role="img" aria-label="DataUno Soluciones Informáticas">
  <defs>
    <linearGradient id="dataBlue" x1="0" y1="0" x2="1" y2="1">
      <stop offset="0" stop-color="#0087df"/>
      <stop offset="0.55" stop-color="#006bb8"/>
      <stop offset="1" stop-color="#00539d"/>
    </linearGradient>
    <filter id="soft" x="-20%" y="-20%" width="140%" height="140%">
      <feDropShadow dx="0" dy="5" stdDeviation="5" flood-color="#000" flood-opacity="0.25"/>
    </filter>
  </defs>
  <g filter="url(#soft)">
    <path d="M120 34c53 0 96 43 96 96s-43 96-96 96S24 183 24 130c0-27 11-52 29-69l42 31c-8 10-13 23-13 38 0 24 14 44 34 53V34h4Z" fill="#fff"/>
    <rect x="101" y="36" width="56" height="140" rx="7" fill="#fff"/>
    <rect x="101" y="36" width="56" height="44" rx="7" fill="#fff" opacity="0.98"/>
    <text x="220" y="139" font-family="Arial Black, Inter, Arial, sans-serif" font-size="104" font-weight="900" letter-spacing="6" fill="url(#dataBlue)">DATAUNO</text>
    <text x="224" y="215" font-family="Georgia, 'Times New Roman', serif" font-size="45" font-style="italic" font-weight="700" letter-spacing="1.5" fill="#fff">Soluciones Informáticas</text>
  </g>
</svg>
