<svg xmlns="http://www.w3.org/2000/svg" viewBox="0 0 980 270" role="img" aria-label="DataUno Soluciones Informáticas">
  <defs>
    <linearGradient id="blueData" x1="0" x2="1" y1="0" y2="1">
      <stop offset="0" stop-color="#00a7ff"/>
      <stop offset="0.55" stop-color="#0076c9"/>
      <stop offset="1" stop-color="#004f9f"/>
    </linearGradient>
    <filter id="softShadow" x="-20%" y="-20%" width="140%" height="140%">
      <feDropShadow dx="0" dy="8" stdDeviation="8" flood-color="#000000" flood-opacity="0.35"/>
    </filter>
  </defs>

  <g filter="url(#softShadow)">
    <g transform="translate(10 22)">
      <path d="M95 8h54v174H95z" fill="#ffffff" stroke="#07101f" stroke-width="4" rx="8"/>
      <path d="M153 10c72 14 124 78 124 154 0 87-70 157-157 157S-37 251-37 164c0-45 19-86 49-115l49 34c-21 18-34 46-34 81 0 58 47 105 105 105s105-47 105-105c0-43-27-81-66-97z" transform="scale(.78) translate(15 -4)" fill="#ffffff" stroke="#07101f" stroke-width="5"/>
      <rect x="95" y="8" width="54" height="54" rx="8" fill="#ffffff" stroke="#07101f" stroke-width="4"/>
    </g>

    <text x="230" y="132" font-family="Inter, Arial Black, Arial, sans-serif" font-size="92" font-weight="900" letter-spacing="9" fill="url(#blueData)" stroke="#07304f" stroke-width="2">DATAUNO</text>
    <text x="245" y="205" font-family="Georgia, 'Times New Roman', serif" font-size="48" font-style="italic" font-weight="700" letter-spacing="2" fill="#ffffff" stroke="#07101f" stroke-width="2.2" paint-order="stroke fill">Soluciones Informáticas</text>
  </g>
</svg>
